<svg style="display:none"><defs> <style> .cls-1 { fill: none; stroke: #00b8d4; } </style>  <style> .cls-1 { fill: none; stroke: #00b8d4; stroke-width: 2px; } </style>  <style> .cls-1 { fill: none; stroke: #00b8d4; } </style>  <style> .cls-1 { fill: none; stroke: #00b8d4; } </style> </defs><symbol viewBox="2228.5 125 8.5 7.569" id="Symbol 1 &#x2013; 1">  <g id="Symbol 1 &#x2013; 1-Symbol_1_1" data-name="Symbol 1 &#x2013; 1" transform="translate(2037 36)"> <line id="Symbol 1 &#x2013; 1-Line_55" data-name="Line 55" class="cls-1" x2="1.214" transform="translate(191.5 89.5)"/> <line id="Symbol 1 &#x2013; 1-Line_56" data-name="Line 56" class="cls-1" x2="1.214" transform="translate(195.143 89.5)"/> <line id="Symbol 1 &#x2013; 1-Line_57" data-name="Line 57" class="cls-1" x2="1.214" transform="translate(198.786 89.5)"/> <line id="Symbol 1 &#x2013; 1-Line_58" data-name="Line 58" class="cls-1" x2="1.214" transform="translate(191.5 92.784)"/> <line id="Symbol 1 &#x2013; 1-Line_59" data-name="Line 59" class="cls-1" x2="1.214" transform="translate(195.143 92.784)"/> <line id="Symbol 1 &#x2013; 1-Line_60" data-name="Line 60" class="cls-1" x2="1.214" transform="translate(198.786 92.784)"/> <line id="Symbol 1 &#x2013; 1-Line_61" data-name="Line 61" class="cls-1" x2="1.214" transform="translate(191.5 96.069)"/> <line id="Symbol 1 &#x2013; 1-Line_62" data-name="Line 62" class="cls-1" x2="1.214" transform="translate(195.143 96.069)"/> <line id="Symbol 1 &#x2013; 1-Line_63" data-name="Line 63" class="cls-1" x2="1.214" transform="translate(198.786 96.069)"/> </g> </symbol><symbol viewBox="2208.5 30.5 44 22" id="butter">  <g id="butter-Group_82" data-name="Group 82" transform="translate(1950 -2)"> <line id="butter-Line_52" x2="44" transform="translate(258.5 33.5)"/> <line id="butter-Line_53" x2="29" transform="translate(273.5 43.5)"/> <line id="butter-Line_54" x2="44" transform="translate(258.5 53.5)"/> </g> </symbol><symbol viewBox="2632.028 115 11.774 7.569" id="icon1">  <g id="icon1-Group_104" data-name="Group 104" transform="translate(2415 26)"> <line x2="1.072" transform="translate(217.028 89.5)"/> <line x2="1.072" transform="translate(217.028 92.784)"/> <line x2="1.072" transform="translate(217.028 96.069)"/> <line x2="8.547" transform="translate(220.253 89.5)"/> <path d="M0,0H8.547" transform="translate(220.253 92.784)"/> <line y1="0.037" x2="8.547" transform="translate(220.253 96.031)"/> </g> </symbol><symbol viewBox="2216.5 115 8.5 7.569" id="icon3">  <g id="icon3-Group_102" data-name="Group 102" transform="translate(2025 26)"> <line x2="1.214" transform="translate(191.5 89.5)"/> <line x2="1.214" transform="translate(195.143 89.5)"/> <line x2="1.214" transform="translate(198.786 89.5)"/> <line x2="1.214" transform="translate(191.5 92.784)"/> <line x2="1.214" transform="translate(195.143 92.784)"/> <line x2="1.214" transform="translate(198.786 92.784)"/> <line x2="1.214" transform="translate(191.5 96.069)"/> <line x2="1.214" transform="translate(195.143 96.069)"/> <line x2="1.214" transform="translate(198.786 96.069)"/> </g> </symbol></svg>